<svg version="1.2" xmlns="http://www.w3.org/2000/svg" viewBox="0 0 600 600" width="600" height="600"><style>.a{paint-order:stroke fill markers;stroke:#000;stroke-width: 20;stroke-linejoin: round;;fill:#425f3a}</style><path class="a" d="m204.9 485h-90q-27 0-47.2-23.9-20.3-23.9-20.3-55.7v-212.4q0-31.8 20.3-55.7 20.2-23.9 47.2-23.9h90q27 0 47.2 23.9 20.3 23.9 20.3 55.7 0 10.6-6.8 18.6-6.7 8-15.7 8-9 0-15.8-8-6.7-8-6.7-18.6 0-10.6-6.8-18.6-6.7-7.9-15.7-7.9h-90q-9 0-15.7 7.9-6.8 8-6.8 18.6v212.4q0 10.6 6.8 18.6 6.7 7.9 15.7 7.9h90q9 0 15.7-7.9 6.8-8 6.8-18.6v-79.7h-22.5q-9 0-15.8-7.9-6.7-8-6.7-18.6 0-10.6 6.7-18.6 6.8-7.9 15.8-7.9h45q9 0 15.7 7.9 6.8 8 6.8 18.6v106.2q0 31.8-20.3 55.7-20.2 23.9-47.2 23.9zm-12.5 0h-90q-26.9 0-47.2-23.9-20.2-23.9-20.2-55.7v-212.4q0-31.8 20.2-55.7 20.3-23.9 47.2-23.9h90q27 0 47.3 23.9 20.2 23.9 20.2 55.7 0 10.6-6.7 18.6-6.8 8-15.8 8-9 0-15.7-8-6.8-8-6.8-18.6 0-10.6-6.7-18.6-6.8-7.9-15.8-7.9h-90q-8.9 0-15.7 7.9-6.7 8-6.7 18.6v212.4q0 10.6 6.7 18.6 6.8 7.9 15.7 7.9h90q9 0 15.8-7.9 6.7-8 6.7-18.6v-79.7h-22.5q-9 0-15.7-7.9-6.8-8-6.8-18.6 0-10.6 6.8-18.6 6.7-7.9 15.7-7.9h45q9 0 15.8 7.9 6.7 8 6.7 18.6v106.2q0 31.8-20.2 55.7-20.3 23.9-47.3 23.9zm365.3-326.5l-120.1 140.7 120.1 140.7q6.8 7.9 6.8 18.6 0 10.6-6.8 18.5-6.7 8-15.7 8-9 0-15.7-8l-119.3-141.7-22.5 26.5v96.7q0 10.6-6.7 18.5-6.8 8-15.8 8-9 0-15.7-8-6.7-7.9-6.7-18.5v-318.6q0-10.6 6.7-18.5 6.7-8 15.7-8 9 0 15.8 8 6.7 7.9 6.7 18.5v147.6l141.8-166.1q6.7-8 15.7-8 9 0 15.7 8 6.8 7.9 6.8 18.5 0 10.7-6.8 18.6zm-12.4 0l-120.1 140.7 120.1 140.7q6.7 7.9 6.7 18.6 0 10.6-6.7 18.5-6.8 8-15.8 8-9 0-15.7-8l-119.2-141.7-22.5 26.5v96.7q0 10.6-6.8 18.5-6.7 8-15.7 8-9 0-15.8-8-6.7-7.9-6.7-18.5v-318.6q0-10.6 6.7-18.5 6.8-8 15.8-8 9 0 15.7 8 6.8 7.9 6.8 18.5v147.6l141.7-166.1q6.7-8 15.7-8 9 0 15.8 8 6.7 7.9 6.7 18.5 0 10.7-6.7 18.6z"/></svg>